<?xml version="1.0" standalone="no"?>
<!DOCTYPE svg PUBLIC "-//W3C//DTD SVG 20010904//EN"
 "http://www.w3.org/TR/2001/REC-SVG-20010904/DTD/svg10.dtd">
<svg version="1.0" xmlns="http://www.w3.org/2000/svg"
 width="60.000000pt" height="60.000000pt" viewBox="0 0 60.000000 60.000000"
 preserveAspectRatio="xMidYMid meet">
<metadata>
Created by potrace 1.16, written by Peter Selinger 2001-2019
</metadata>
<g transform="translate(0.000000,60.000000) scale(0.100000,-0.100000)"
fill="#000000" stroke="none">
<path d="M100 572 c0 -4 18 -26 40 -47 23 -22 59 -73 81 -114 l41 -73 -26 -27
c-29 -30 -56 -99 -56 -143 0 -46 28 -95 69 -120 46 -29 139 -31 189 -5 69 37
92 128 53 212 -30 67 -43 75 -126 75 l-73 0 -38 68 c-57 102 -79 132 -118 158
-20 14 -36 21 -36 16z"/>
</g>
</svg>
